<mxfile host="app.diagrams.net" modified="2022-01-07T03:44:33.479Z" agent="5.0 (Macintosh; Intel Mac OS X 10_15_7) AppleWebKit/537.36 (KHTML, like Gecko) Chrome/96.0.4664.110 Safari/537.36" etag="rTzgKDlclDq1ubGZBJCu" version="16.2.2" type="github">
  <diagram id="COFSA7T664C4MVWov9Bf" name="Page-1">
    <mxGraphModel dx="1186" dy="796" grid="1" gridSize="10" guides="1" tooltips="1" connect="1" arrows="1" fold="1" page="1" pageScale="1" pageWidth="827" pageHeight="1169" math="0" shadow="0">
      <root>
        <mxCell id="0" />
        <mxCell id="1" parent="0" />
        <mxCell id="PLVqUlCYcYgxWjVqm6bR-3" value="" style="edgeStyle=orthogonalEdgeStyle;rounded=0;orthogonalLoop=1;jettySize=auto;html=1;" edge="1" parent="1" source="PLVqUlCYcYgxWjVqm6bR-1" target="PLVqUlCYcYgxWjVqm6bR-2">
          <mxGeometry relative="1" as="geometry" />
        </mxCell>
        <mxCell id="PLVqUlCYcYgxWjVqm6bR-1" value="MaterialApp" style="rounded=0;whiteSpace=wrap;html=1;" vertex="1" parent="1">
          <mxGeometry x="354" y="70" width="120" height="60" as="geometry" />
        </mxCell>
        <mxCell id="PLVqUlCYcYgxWjVqm6bR-5" value="" style="edgeStyle=orthogonalEdgeStyle;rounded=0;orthogonalLoop=1;jettySize=auto;html=1;" edge="1" parent="1" source="PLVqUlCYcYgxWjVqm6bR-2" target="PLVqUlCYcYgxWjVqm6bR-4">
          <mxGeometry relative="1" as="geometry" />
        </mxCell>
        <mxCell id="PLVqUlCYcYgxWjVqm6bR-11" value="" style="edgeStyle=orthogonalEdgeStyle;rounded=0;orthogonalLoop=1;jettySize=auto;html=1;" edge="1" parent="1" source="PLVqUlCYcYgxWjVqm6bR-2" target="PLVqUlCYcYgxWjVqm6bR-10">
          <mxGeometry relative="1" as="geometry" />
        </mxCell>
        <mxCell id="PLVqUlCYcYgxWjVqm6bR-17" value="" style="edgeStyle=orthogonalEdgeStyle;rounded=0;orthogonalLoop=1;jettySize=auto;html=1;" edge="1" parent="1" source="PLVqUlCYcYgxWjVqm6bR-2" target="PLVqUlCYcYgxWjVqm6bR-16">
          <mxGeometry relative="1" as="geometry" />
        </mxCell>
        <mxCell id="PLVqUlCYcYgxWjVqm6bR-2" value="Scaffold" style="rounded=0;whiteSpace=wrap;html=1;" vertex="1" parent="1">
          <mxGeometry x="354" y="170" width="120" height="60" as="geometry" />
        </mxCell>
        <mxCell id="PLVqUlCYcYgxWjVqm6bR-7" value="" style="edgeStyle=orthogonalEdgeStyle;rounded=0;orthogonalLoop=1;jettySize=auto;html=1;" edge="1" parent="1" source="PLVqUlCYcYgxWjVqm6bR-4" target="PLVqUlCYcYgxWjVqm6bR-6">
          <mxGeometry relative="1" as="geometry" />
        </mxCell>
        <mxCell id="PLVqUlCYcYgxWjVqm6bR-9" value="" style="edgeStyle=orthogonalEdgeStyle;rounded=0;orthogonalLoop=1;jettySize=auto;html=1;" edge="1" parent="1" source="PLVqUlCYcYgxWjVqm6bR-4" target="PLVqUlCYcYgxWjVqm6bR-8">
          <mxGeometry relative="1" as="geometry" />
        </mxCell>
        <mxCell id="PLVqUlCYcYgxWjVqm6bR-4" value="AppBar" style="rounded=0;whiteSpace=wrap;html=1;" vertex="1" parent="1">
          <mxGeometry x="354" y="270" width="120" height="60" as="geometry" />
        </mxCell>
        <mxCell id="PLVqUlCYcYgxWjVqm6bR-6" value="Text" style="rounded=0;whiteSpace=wrap;html=1;" vertex="1" parent="1">
          <mxGeometry x="294" y="410" width="120" height="60" as="geometry" />
        </mxCell>
        <mxCell id="PLVqUlCYcYgxWjVqm6bR-8" value="Color" style="rounded=0;whiteSpace=wrap;html=1;" vertex="1" parent="1">
          <mxGeometry x="414" y="410" width="120" height="60" as="geometry" />
        </mxCell>
        <mxCell id="PLVqUlCYcYgxWjVqm6bR-13" value="" style="edgeStyle=orthogonalEdgeStyle;rounded=0;orthogonalLoop=1;jettySize=auto;html=1;" edge="1" parent="1" source="PLVqUlCYcYgxWjVqm6bR-10" target="PLVqUlCYcYgxWjVqm6bR-12">
          <mxGeometry relative="1" as="geometry" />
        </mxCell>
        <mxCell id="PLVqUlCYcYgxWjVqm6bR-10" value="body" style="rounded=0;whiteSpace=wrap;html=1;" vertex="1" parent="1">
          <mxGeometry x="640" y="270" width="120" height="60" as="geometry" />
        </mxCell>
        <mxCell id="PLVqUlCYcYgxWjVqm6bR-15" value="" style="edgeStyle=orthogonalEdgeStyle;rounded=0;orthogonalLoop=1;jettySize=auto;html=1;" edge="1" parent="1" source="PLVqUlCYcYgxWjVqm6bR-12" target="PLVqUlCYcYgxWjVqm6bR-14">
          <mxGeometry relative="1" as="geometry" />
        </mxCell>
        <mxCell id="PLVqUlCYcYgxWjVqm6bR-12" value="image" style="rounded=0;whiteSpace=wrap;html=1;" vertex="1" parent="1">
          <mxGeometry x="640" y="410" width="120" height="60" as="geometry" />
        </mxCell>
        <mxCell id="PLVqUlCYcYgxWjVqm6bR-14" value="NetworkImage" style="rounded=0;whiteSpace=wrap;html=1;" vertex="1" parent="1">
          <mxGeometry x="640" y="550" width="120" height="60" as="geometry" />
        </mxCell>
        <mxCell id="PLVqUlCYcYgxWjVqm6bR-16" value="Background Color" style="rounded=0;whiteSpace=wrap;html=1;" vertex="1" parent="1">
          <mxGeometry x="70" y="410" width="120" height="60" as="geometry" />
        </mxCell>
      </root>
    </mxGraphModel>
  </diagram>
</mxfile>
